<svg width="118" height="24" viewBox="0 0 118 24" fill="none" xmlns="http://www.w3.org/2000/svg">
<path d="M12.5 12L1 0.5H22.5V2.5L12.5 12Z" fill="#E0A03F"/>
<path d="M0 23.5V0.5L12 12.5L1 23.5H0Z" fill="#E0A03F"/>
<path d="M22.5 22.9999V3.31201L2 23.4999L22.5 22.9999Z" fill="#E0A03F"/>
<path d="M37.742 5.4V6.822H33.674V18H32.162V6.822H28.112V5.4H37.742ZM42.4764 7.902C45.5544 7.902 47.5524 10.242 47.4264 13.5H38.9484C39.0924 15.552 40.5504 16.794 42.5484 16.794C43.9164 16.794 45.0504 16.218 45.6444 15.066H47.1924C46.3644 17.172 44.5644 18.198 42.4944 18.198C39.5604 18.198 37.4184 16.11 37.4184 13.086C37.4184 10.08 39.5244 7.902 42.4764 7.902ZM42.4764 9.306C40.6584 9.306 39.3624 10.476 39.0204 12.096H45.8064C45.4824 10.44 44.2584 9.306 42.4764 9.306ZM57.377 18H55.577L52.841 14.058L50.141 18H48.341L51.941 12.906L48.539 8.1H50.339L52.877 11.79L55.379 8.1H57.197L53.777 12.924L57.377 18ZM66.1738 16.326L66.4438 17.568C65.9038 17.856 64.8418 18.198 63.7618 18.198C61.6378 18.198 60.2158 16.83 60.2158 14.22V9.504H58.3078V8.1H60.2158V5.724L61.7098 5.4V8.1H66.1558V9.504H61.7098V14.148C61.7098 15.84 62.4658 16.812 64.0138 16.812C64.7158 16.812 65.4358 16.596 66.1738 16.326ZM69.2091 3.744C69.8031 3.744 70.2531 4.176 70.2531 4.734C70.2531 5.31 69.8031 5.742 69.2091 5.742C68.6151 5.742 68.1651 5.31 68.1651 4.734C68.1651 4.176 68.6151 3.744 69.2091 3.744ZM68.4531 18V8.1H69.9471V18H68.4531ZM72.6555 18V4.14H74.1495V18H72.6555ZM81.4295 7.902C84.5075 7.902 86.5055 10.242 86.3795 13.5H77.9015C78.0455 15.552 79.5035 16.794 81.5015 16.794C82.8695 16.794 84.0035 16.218 84.5975 15.066H86.1455C85.3175 17.172 83.5175 18.198 81.4475 18.198C78.5135 18.198 76.3715 16.11 76.3715 13.086C76.3715 10.08 78.4775 7.902 81.4295 7.902ZM81.4295 9.306C79.6115 9.306 78.3155 10.476 77.9735 12.096H84.7595C84.4355 10.44 83.2115 9.306 81.4295 9.306ZM98.0535 18L96.5595 14.22H90.7095L89.2155 18H87.6315L92.6715 5.4H94.5975L99.6375 18H98.0535ZM91.2855 12.798H96.0015L93.6435 6.822L91.2855 12.798ZM106.399 7.902C106.633 7.902 106.867 7.92 107.011 7.938V9.468C106.849 9.45 106.633 9.432 106.381 9.432C104.311 9.432 102.871 10.782 102.871 13.32V18H101.377V8.1H102.871V10.314C103.465 8.838 104.653 7.902 106.399 7.902ZM115.955 16.326L116.225 17.568C115.685 17.856 114.623 18.198 113.543 18.198C111.419 18.198 109.997 16.83 109.997 14.22V9.504H108.089V8.1H109.997V5.724L111.491 5.4V8.1H115.937V9.504H111.491V14.148C111.491 15.84 112.247 16.812 113.795 16.812C114.497 16.812 115.217 16.596 115.955 16.326Z" fill="black"/>
</svg>
